<svg xmlns="http://www.w3.org/2000/svg" xmlns:xlink="http://www.w3.org/1999/xlink" viewBox="0,0,256,256" width="30px" height="30px" fill-rule="nonzero"><g fill="#f8f2f2" fill-rule="nonzero" stroke="none" stroke-width="1" stroke-linecap="butt" stroke-linejoin="miter" stroke-miterlimit="10" stroke-dasharray="" stroke-dashoffset="0" font-family="none" font-weight="none" font-size="none" text-anchor="none" style="mix-blend-mode: normal"><g transform="scale(8.53333,8.53333)"><path d="M9.5,5.5c-5.23455,0 -9.5,4.26545 -9.5,9.5c0,5.23455 4.26545,9.5 9.5,9.5c2.34414,0 4.48903,-0.86061 6.14844,-2.27539c1.49691,1.11083 3.34408,1.77539 5.35156,1.77539c4.971,0 9,-4.029 9,-9c0,-4.971 -4.029,-9 -9,-9c-2.00748,0 -3.85465,0.66456 -5.35156,1.77539c-1.65941,-1.41478 -3.8043,-2.27539 -6.14844,-2.27539zM9.5,7.5c1.77389,0 3.39801,0.61371 4.67969,1.63672c-1.35584,1.57554 -2.17969,3.62134 -2.17969,5.86328c0,2.24194 0.82385,4.28775 2.17969,5.86328c-1.28168,1.02301 -2.90579,1.63672 -4.67969,1.63672c-4.15345,0 -7.5,-3.34655 -7.5,-7.5c0,-4.15345 3.34655,-7.5 7.5,-7.5z"></path></g></g></svg>